<svg xmlns:xlink="http://www.w3.org/1999/xlink" width="448" xmlns="http://www.w3.org/2000/svg" height="448" id="screenshot-ba8fcc20-0287-11ed-817f-774be3403b30" viewBox="0 0 448 448" style="-webkit-print-color-adjust: exact;" fill="none" version="1.1"><g id="shape-ba8fcc20-0287-11ed-817f-774be3403b30" rx="0" ry="0"><g id="shape-ba8fcc21-0287-11ed-817f-774be3403b30"><defs><linearGradient id="fill-color-gradient_f59cae00-0287-11ed-a0bc-41eb5e3eeacb_0" x1="0.5" y1="0" x2="0.5" y2="1"><stop offset="0" stop-color="#ff512f" stop-opacity="1"/><stop offset="1" stop-color="#dd2476" stop-opacity="1"/></linearGradient><pattern patternUnits="userSpaceOnUse" x="0" y="0" height="448" width="448" data-loading="false" id="fill-0-f59cae00-0287-11ed-a0bc-41eb5e3eeacb"><g><rect width="448" height="448" style="fill: url(&quot;#fill-color-gradient_f59cae00-0287-11ed-a0bc-41eb5e3eeacb_0&quot;);"/></g></pattern></defs><g id="fills-ba8fcc21-0287-11ed-817f-774be3403b30"><rect rx="50" ry="50" x="0" y="0" transform="matrix(1,0,0,1,0,0)" width="448" height="448" fill="url(#fill-0-f59cae00-0287-11ed-a0bc-41eb5e3eeacb)"/></g><g id="strokes-ba8fcc21-0287-11ed-817f-774be3403b30"><g class="stroke-shape"><rect rx="50" ry="50" x="0" y="0" transform="matrix(1,0,0,1,0,0)" width="448" height="448" style="fill: none;"/></g></g></g><g id="shape-ba8fcc22-0287-11ed-817f-774be3403b30" rx="0" ry="0"><g id="shape-ba8fcc23-0287-11ed-817f-774be3403b30"><g id="fills-ba8fcc23-0287-11ed-817f-774be3403b30"><rect rx="10" ry="10" x="71.60327916099106" y="101.89086294416245" transform="matrix(1,0,0,1,0,0)" width="132" height="21" style="fill: rgb(255, 255, 255); fill-opacity: 1;"/></g><g id="strokes-ba8fcc23-0287-11ed-817f-774be3403b30"><g class="stroke-shape"><rect rx="10" ry="10" x="71.60327916099106" y="101.89086294416245" transform="matrix(1,0,0,1,0,0)" width="132" height="21" style="fill: none;"/></g></g></g><g id="shape-ba8fcc24-0287-11ed-817f-774be3403b30"><g id="fills-ba8fcc24-0287-11ed-817f-774be3403b30"><rect rx="10" ry="10" x="236.72383753662552" y="147.89086294416245" transform="matrix(1,0,0,1,0,0)" width="147" height="21" style="fill: rgb(255, 255, 255); fill-opacity: 1;"/></g><g id="strokes-ba8fcc24-0287-11ed-817f-774be3403b30"><g class="stroke-shape"><rect rx="10" ry="10" x="236.72383753662552" y="147.89086294416245" transform="matrix(1,0,0,1,0,0)" width="147" height="21" style="fill: none;"/></g></g></g><g id="shape-ba8fcc25-0287-11ed-817f-774be3403b30"><g id="fills-ba8fcc25-0287-11ed-817f-774be3403b30"><rect rx="10" ry="10" x="225.72383753662552" y="101.89086294416245" transform="matrix(1,0,0,1,0,0)" width="84" height="21" style="fill: rgb(255, 255, 255); fill-opacity: 1;"/></g><g id="strokes-ba8fcc25-0287-11ed-817f-774be3403b30"><g class="stroke-shape"><rect rx="10" ry="10" x="225.72383753662552" y="101.89086294416245" transform="matrix(1,0,0,1,0,0)" width="84" height="21" style="fill: none;"/></g></g></g><g id="shape-ba8fcc26-0287-11ed-817f-774be3403b30"><g id="fills-ba8fcc26-0287-11ed-817f-774be3403b30"><rect rx="10" ry="10" x="331.72383753662564" y="101.89086294416245" transform="matrix(1,0,0,1,0,0)" width="51" height="21" style="fill: rgb(255, 255, 255); fill-opacity: 1;"/></g><g id="strokes-ba8fcc26-0287-11ed-817f-774be3403b30"><g class="stroke-shape"><rect rx="10" ry="10" x="331.72383753662564" y="101.89086294416245" transform="matrix(1,0,0,1,0,0)" width="51" height="21" style="fill: none;"/></g></g></g><g id="shape-ba8fcc27-0287-11ed-817f-774be3403b30"><g id="fills-ba8fcc27-0287-11ed-817f-774be3403b30"><rect rx="10" ry="10" x="152.72383753662552" y="148.89086294416245" transform="matrix(1,0,0,1,0,0)" width="51" height="21" style="fill: rgb(255, 255, 255); fill-opacity: 1;"/></g><g id="strokes-ba8fcc27-0287-11ed-817f-774be3403b30"><g class="stroke-shape"><rect rx="10" ry="10" x="152.72383753662552" y="148.89086294416245" transform="matrix(1,0,0,1,0,0)" width="51" height="21" style="fill: none;"/></g></g></g><g id="shape-ba8fcc28-0287-11ed-817f-774be3403b30"><g id="fills-ba8fcc28-0287-11ed-817f-774be3403b30"><rect rx="10" ry="10" x="71.60327916099106" y="147.89086294416245" transform="matrix(1,0,0,1,0,0)" width="58" height="21" style="fill: rgb(255, 255, 255); fill-opacity: 1;"/></g><g id="strokes-ba8fcc28-0287-11ed-817f-774be3403b30"><g class="stroke-shape"><rect rx="10" ry="10" x="71.60327916099106" y="147.89086294416245" transform="matrix(1,0,0,1,0,0)" width="58" height="21" style="fill: none;"/></g></g></g><g id="shape-ba8fcc29-0287-11ed-817f-774be3403b30"><g id="fills-ba8fcc29-0287-11ed-817f-774be3403b30"><rect rx="10" ry="10" x="64.95128936692754" y="279.10913705583755" transform="matrix(1,0,0,-1,0,579.2182741116751)" width="58" height="21" style="fill: rgb(255, 255, 255); fill-opacity: 1;"/></g><g id="strokes-ba8fcc29-0287-11ed-817f-774be3403b30"><g class="stroke-shape"><rect rx="10" ry="10" x="64.95128936692754" y="279.10913705583755" transform="matrix(1,0,0,-1,0,579.2182741116751)" width="58" height="21" style="fill: none;"/></g></g></g><g id="shape-ba8fcc2a-0287-11ed-817f-774be3403b30"><g id="fills-ba8fcc2a-0287-11ed-817f-774be3403b30"><path rx="0" ry="0" d="M83.58678169906204,239.85289120825138L117.9524625927221,205.48721031459132L154.58678169906204,239.85289120825138"/></g><g id="strokes-ba8fcc2a-0287-11ed-817f-774be3403b30"><g class="stroke-shape"><defs><marker refX="3" fill-opacity="1" orient="auto-start-reverse" id="marker-f5a0f3c0-0287-11ed-a0bc-41eb5e3eeacb-round" viewBox="0 0 6 6" fill="#ffffff" refY="3" markerWidth="6" markerHeight="6"><path d="M 3 2.5 A 0.5 0.5 0 0 1 3 3.5 "/></marker></defs><path rx="0" ry="0" d="M83.58678169906204,239.85289120825138L117.9524625927221,205.48721031459132L154.58678169906204,239.85289120825138" style="fill: none; stroke-width: 21; stroke: rgb(255, 255, 255); stroke-opacity: 1; marker-start: url(&quot;#marker-f5a0f3c0-0287-11ed-a0bc-41eb5e3eeacb-round&quot;);"/></g></g></g><g id="shape-ba8fcc2b-0287-11ed-817f-774be3403b30"><g id="fills-ba8fcc2b-0287-11ed-817f-774be3403b30"><rect rx="10" ry="10" x="145.95128936692754" y="278.10913705583755" transform="matrix(1,0,0,-1,0,577.2182741116751)" width="51" height="21" style="fill: rgb(255, 255, 255); fill-opacity: 1;"/></g><g id="strokes-ba8fcc2b-0287-11ed-817f-774be3403b30"><g class="stroke-shape"><rect rx="10" ry="10" x="145.95128936692754" y="278.10913705583755" transform="matrix(1,0,0,-1,0,577.2182741116751)" width="51" height="21" style="fill: none;"/></g></g></g><g id="shape-ba8fcc2c-0287-11ed-817f-774be3403b30"><g id="fills-ba8fcc2c-0287-11ed-817f-774be3403b30"><path rx="0" ry="0" d="M153.7542943894174,239.18284044683003L188.11997528307745,204.81715955316997L224.7542943894174,239.18284044683003"/></g><g id="strokes-ba8fcc2c-0287-11ed-817f-774be3403b30"><g class="stroke-shape"><defs><marker refX="3" fill-opacity="1" orient="auto-start-reverse" id="marker-f5a1de20-0287-11ed-a0bc-41eb5e3eeacb-square" viewBox="0 0 6 6" fill="#ffffff" refY="3" markerWidth="6" markerHeight="6"><rect x="3" y="2.5" width="0.5" height="1"/></marker></defs><path rx="0" ry="0" d="M153.7542943894174,239.18284044683003L188.11997528307745,204.81715955316997L224.7542943894174,239.18284044683003" style="fill: none; stroke-width: 21; stroke: rgb(255, 255, 255); stroke-opacity: 1; marker-start: url(&quot;#marker-f5a1de20-0287-11ed-a0bc-41eb5e3eeacb-square&quot;);"/></g></g></g><g id="shape-ba8fcc2d-0287-11ed-817f-774be3403b30"><g id="fills-ba8fcc2d-0287-11ed-817f-774be3403b30"><rect rx="10" ry="10" x="229.95128936692754" y="279.10913705583755" transform="matrix(1,0,0,-1,0,579.2182741116751)" width="147" height="21" style="fill: rgb(255, 255, 255); fill-opacity: 1;"/></g><g id="strokes-ba8fcc2d-0287-11ed-817f-774be3403b30"><g class="stroke-shape"><rect rx="10" ry="10" x="229.95128936692754" y="279.10913705583755" transform="matrix(1,0,0,-1,0,579.2182741116751)" width="147" height="21" style="fill: none;"/></g></g></g><g id="shape-ba8fcc2e-0287-11ed-817f-774be3403b30"><g id="fills-ba8fcc2e-0287-11ed-817f-774be3403b30"><path rx="0" ry="0" d="M226.7542943894174,240.85289120825138L261.11997528307745,206.48721031459132L297.7542943894174,240.85289120825138"/></g><g id="strokes-ba8fcc2e-0287-11ed-817f-774be3403b30"><g class="stroke-shape"><defs><marker refX="3" fill-opacity="1" orient="auto-start-reverse" id="marker-f5a27a60-0287-11ed-a0bc-41eb5e3eeacb-square" viewBox="0 0 6 6" fill="#ffffff" refY="3" markerWidth="6" markerHeight="6"><rect x="3" y="2.5" width="0.5" height="1"/></marker></defs><path rx="0" ry="0" d="M226.7542943894174,240.85289120825138L261.11997528307745,206.48721031459132L297.7542943894174,240.85289120825138" style="fill: none; stroke-width: 21; stroke: rgb(255, 255, 255); stroke-opacity: 1; marker-start: url(&quot;#marker-f5a27a60-0287-11ed-a0bc-41eb5e3eeacb-square&quot;);"/></g></g></g><g id="shape-ba8fcc2f-0287-11ed-817f-774be3403b30"><g id="fills-ba8fcc2f-0287-11ed-817f-774be3403b30"><rect rx="10" ry="10" x="218.95128936692754" y="325.10913705583755" transform="matrix(1,0,0,-1,0,671.2182741116751)" width="84" height="21" style="fill: rgb(255, 255, 255); fill-opacity: 1;"/></g><g id="strokes-ba8fcc2f-0287-11ed-817f-774be3403b30"><g class="stroke-shape"><rect rx="10" ry="10" x="218.95128936692754" y="325.10913705583755" transform="matrix(1,0,0,-1,0,671.2182741116751)" width="84" height="21" style="fill: none;"/></g></g></g><g id="shape-ba8fcc30-0287-11ed-817f-774be3403b30"><g id="fills-ba8fcc30-0287-11ed-817f-774be3403b30"><rect rx="10" ry="10" x="324.95128936692765" y="325.10913705583755" transform="matrix(1,0,0,-1,0,671.2182741116751)" width="51" height="21" style="fill: rgb(255, 255, 255); fill-opacity: 1;"/></g><g id="strokes-ba8fcc30-0287-11ed-817f-774be3403b30"><g class="stroke-shape"><rect rx="10" ry="10" x="324.95128936692765" y="325.10913705583755" transform="matrix(1,0,0,-1,0,671.2182741116751)" width="51" height="21" style="fill: none;"/></g></g></g><g id="shape-ba8ff330-0287-11ed-817f-774be3403b30"><g id="fills-ba8ff330-0287-11ed-817f-774be3403b30"><rect rx="10" ry="10" x="64.95128936692754" y="325.10913705583755" transform="matrix(1,0,0,-1,0,671.2182741116751)" width="132" height="21" style="fill: rgb(255, 255, 255); fill-opacity: 1;"/></g><g id="strokes-ba8ff330-0287-11ed-817f-774be3403b30"><g class="stroke-shape"><rect rx="10" ry="10" x="64.95128936692754" y="325.10913705583755" transform="matrix(1,0,0,-1,0,671.2182741116751)" width="132" height="21" style="fill: none;"/></g></g></g><g id="shape-ba8ff331-0287-11ed-817f-774be3403b30"><g id="fills-ba8ff331-0287-11ed-817f-774be3403b30"><path rx="0" ry="0" d="M296.92180707977275,239.85289120825138L331.2874879734328,205.48721031459132L367.92180707977286,239.85289120825138"/></g><g id="strokes-ba8ff331-0287-11ed-817f-774be3403b30"><g class="stroke-shape"><defs><marker refX="3" fill-opacity="1" orient="auto-start-reverse" id="marker-f5a38bd0-0287-11ed-a0bc-41eb5e3eeacb-round" viewBox="0 0 6 6" fill="#ffffff" refY="3" markerWidth="6" markerHeight="6"><path d="M 3 2.5 A 0.5 0.5 0 0 1 3 3.5 "/></marker><marker refX="3" fill-opacity="1" orient="auto-start-reverse" id="marker-f5a38bd0-0287-11ed-a0bc-41eb5e3eeacb-square" viewBox="0 0 6 6" fill="#ffffff" refY="3" markerWidth="6" markerHeight="6"><rect x="3" y="2.5" width="0.5" height="1"/></marker></defs><path rx="0" ry="0" d="M296.92180707977275,239.85289120825138L331.2874879734328,205.48721031459132L367.92180707977286,239.85289120825138" style="fill: none; stroke-width: 21; stroke: rgb(255, 255, 255); stroke-opacity: 1; marker-start: url(&quot;#marker-f5a38bd0-0287-11ed-a0bc-41eb5e3eeacb-square&quot;); marker-end: url(&quot;#marker-f5a38bd0-0287-11ed-a0bc-41eb5e3eeacb-round&quot;);"/></g></g></g></g></g></svg>