<?xml version="1.0" standalone="no"?>
<!DOCTYPE svg PUBLIC "-//W3C//DTD SVG 20010904//EN"
 "http://www.w3.org/TR/2001/REC-SVG-20010904/DTD/svg10.dtd">
<svg version="1.0" xmlns="http://www.w3.org/2000/svg"
 width="896.000000pt" height="896.000000pt" viewBox="0 0 896.000000 896.000000"
 preserveAspectRatio="xMidYMid meet">
<metadata>
Created by potrace 1.14, written by Peter Selinger 2001-2017
</metadata>
<g transform="translate(0.000000,896.000000) scale(0.100000,-0.100000)"
fill="#000000" stroke="none">
<path d="M899 8956 c-2 -2 -22 -6 -44 -9 -323 -45 -603 -248 -750 -545 -32
-65 -63 -147 -71 -187 -2 -11 -10 -49 -18 -85 -22 -99 -22 -7175 -1 -7297 77
-430 405 -751 840 -822 59 -9 7212 -7 7265 2 218 39 394 130 545 282 141 140
230 307 275 511 19 87 19 155 17 3694 -1 1983 -5 3614 -9 3625 -3 11 -11 43
-18 70 -23 103 -82 234 -151 336 -35 52 -159 185 -204 219 -96 72 -190 121
-306 159 -161 53 52 50 -3795 50 -1964 1 -3573 -1 -3575 -3z"/>
</g>
</svg>
